<svg width="22" height="23" viewBox="0 0 22 23" fill="none" xmlns="http://www.w3.org/2000/svg">
<path d="M0 8.28613C0 4.5149 0 2.62928 1.17157 1.45771C2.34315 0.286133 4.22876 0.286133 8 0.286133H14C17.7712 0.286133 19.6569 0.286133 20.8284 1.45771C22 2.62928 22 4.5149 22 8.28613V10.6045C22 14.3757 22 16.2613 20.8284 17.4329C19.6569 18.6045 17.7712 18.6045 14 18.6045H0V8.28613Z" fill="white"/>
<path d="M-4.76837e-07 18.6045L5 18.6045L1.33496 21.5365C0.79696 21.9669 -2.1637e-07 21.5839 -2.76602e-07 20.8949L-4.76837e-07 18.6045Z" fill="white"/>
<path d="M14.3398 9.86621C14.3398 10.4163 14.2699 10.9176 14.1299 11.3701C13.9932 11.8193 13.7865 12.2067 13.5098 12.5322C13.2331 12.8545 12.8864 13.1035 12.4697 13.2793C12.0531 13.4551 11.5648 13.543 11.0049 13.543C10.4352 13.543 9.94043 13.4551 9.52051 13.2793C9.10384 13.1035 8.75716 12.8529 8.48047 12.5273C8.20703 12.2018 8.00195 11.8128 7.86523 11.3604C7.72852 10.9079 7.66016 10.4066 7.66016 9.85645C7.66016 9.12077 7.7806 8.47949 8.02148 7.93262C8.26562 7.38249 8.63509 6.95605 9.12988 6.65332C9.62793 6.34733 10.2562 6.19434 11.0146 6.19434C11.7568 6.19434 12.3737 6.3457 12.8652 6.64844C13.3568 6.95117 13.7246 7.3776 13.9688 7.92773C14.2161 8.47461 14.3398 9.12077 14.3398 9.86621ZM8.89062 9.86621C8.89062 10.4163 8.96549 10.8932 9.11523 11.2969C9.26497 11.6973 9.49447 12.0065 9.80371 12.2246C10.1162 12.4395 10.5166 12.5469 11.0049 12.5469C11.4964 12.5469 11.8968 12.4395 12.2061 12.2246C12.5153 12.0065 12.7432 11.6973 12.8896 11.2969C13.0361 10.8932 13.1094 10.4163 13.1094 9.86621C13.1094 9.02962 12.9417 8.37533 12.6064 7.90332C12.2744 7.42806 11.7438 7.19043 11.0146 7.19043C10.5264 7.19043 10.1243 7.29785 9.80859 7.5127C9.49609 7.72754 9.26497 8.03516 9.11523 8.43555C8.96549 8.83268 8.89062 9.30957 8.89062 9.86621Z" fill="#BF340F"/>
</svg>
