<svg width="26" height="11" viewBox="0 0 26 11" fill="none" xmlns="http://www.w3.org/2000/svg">
<path d="M21.8698 4.14444L20.7251 10.5434C20.6934 10.6866 20.782 10.8297 20.9591 10.8297H23.3434C23.5648 10.8297 23.666 10.699 23.6913 10.5434L25.1017 2.65674L21.8698 4.15066V4.14444Z" fill="white"/>
<path d="M25.4958 0.46578C25.5274 0.27904 25.4073 0.191895 25.2492 0.191895H22.8648C22.7067 0.191895 22.5612 0.303939 22.5296 0.46578L22.0742 3.00545L25.3061 1.51153L25.4958 0.459556V0.46578Z" fill="white"/>
<path d="M19.5171 10.8235H17.0442C16.8987 10.8235 16.7975 10.6928 16.7975 10.5496L16.7532 8.56395H14.1665L13.3949 10.5496C13.338 10.6928 13.2052 10.8235 13.0597 10.8235H10.4856C10.3528 10.8235 10.2832 10.755 10.2832 10.6368C10.2832 10.6119 10.2959 10.5683 10.3148 10.5247L13.8376 1.7666C14.4005 0.34737 15.5452 0.0610352 16.9303 0.0610352C18.3154 0.0610352 19.359 0.34737 19.4159 1.7666L19.7954 10.5247V10.5372C19.7954 10.6928 19.6815 10.8235 19.5171 10.8235ZM16.6837 2.63805C16.6837 2.50733 16.6837 2.43886 16.5509 2.43886C16.418 2.43886 16.4054 2.51356 16.3611 2.63805L14.995 6.27326H16.7406L16.6837 2.63805Z" fill="white"/>
<path d="M11.2455 0.477864L9.49987 10.2942C9.44295 10.5805 9.15202 10.8233 8.86109 10.8233H7.05858C6.79928 10.8233 6.63484 10.7112 6.52099 10.4374L4.37064 5.64435C4.32637 5.54475 4.28209 5.5323 4.23782 5.5323C4.19355 5.5323 4.16193 5.5572 4.14928 5.66302L3.27649 10.5432C3.25119 10.6988 3.08675 10.8295 2.92864 10.8295H0.746659C0.601194 10.8295 0.5 10.7299 0.5 10.5867V10.5432L2.24558 0.726852C2.3025 0.440516 2.59343 0.197754 2.88436 0.197754H4.65524C4.93353 0.197754 5.04737 0.372045 5.16121 0.614807L7.36849 5.55098C7.41276 5.65057 7.42541 5.6817 7.46968 5.6817C7.51395 5.6817 7.55822 5.66925 7.57087 5.55098L8.47529 0.484089C8.50058 0.328472 8.66502 0.197754 8.82314 0.197754H11.0051C11.1506 0.197754 11.2391 0.297349 11.2391 0.428067V0.484089L11.2455 0.477864Z" fill="white"/>
</svg>
