<svg width="22" height="23" viewBox="0 0 22 23" fill="none" xmlns="http://www.w3.org/2000/svg">
<path d="M0 8.28613C0 4.5149 0 2.62928 1.17157 1.45771C2.34315 0.286133 4.22876 0.286133 8 0.286133H14C17.7712 0.286133 19.6569 0.286133 20.8284 1.45771C22 2.62928 22 4.5149 22 8.28613V10.6045C22 14.3757 22 16.2613 20.8284 17.4329C19.6569 18.6045 17.7712 18.6045 14 18.6045H0V8.28613Z" fill="white"/>
<path d="M-4.76837e-07 18.6045L5 18.6045L1.33496 21.5365C0.79696 21.9669 -2.1637e-07 21.5839 -2.76602e-07 20.8949L-4.76837e-07 18.6045Z" fill="white"/>
</svg>
