<svg width="22" height="23" viewBox="0 0 22 23" fill="none" xmlns="http://www.w3.org/2000/svg">
<path d="M0 8.28613C0 4.5149 0 2.62928 1.17157 1.45771C2.34315 0.286133 4.22876 0.286133 8 0.286133H14C17.7712 0.286133 19.6569 0.286133 20.8284 1.45771C22 2.62928 22 4.5149 22 8.28613V10.6045C22 14.3757 22 16.2613 20.8284 17.4329C19.6569 18.6045 17.7712 18.6045 14 18.6045H0V8.28613Z" fill="white"/>
<path d="M-4.76837e-07 18.6045L5 18.6045L1.33496 21.5365C0.79696 21.9669 -2.1637e-07 21.5839 -2.76602e-07 20.8949L-4.76837e-07 18.6045Z" fill="white"/>
<path d="M11.5664 9.86621C11.5664 10.4163 11.4964 10.9176 11.3564 11.3701C11.2197 11.8193 11.013 12.2067 10.7363 12.5322C10.4596 12.8545 10.113 13.1035 9.69629 13.2793C9.27962 13.4551 8.79134 13.543 8.23145 13.543C7.66178 13.543 7.16699 13.4551 6.74707 13.2793C6.3304 13.1035 5.98372 12.8529 5.70703 12.5273C5.43359 12.2018 5.22852 11.8128 5.0918 11.3604C4.95508 10.9079 4.88672 10.4066 4.88672 9.85645C4.88672 9.12077 5.00716 8.47949 5.24805 7.93262C5.49219 7.38249 5.86165 6.95605 6.35645 6.65332C6.85449 6.34733 7.48275 6.19434 8.24121 6.19434C8.9834 6.19434 9.60026 6.3457 10.0918 6.64844C10.5833 6.95117 10.9512 7.3776 11.1953 7.92773C11.4427 8.47461 11.5664 9.12077 11.5664 9.86621ZM6.11719 9.86621C6.11719 10.4163 6.19206 10.8932 6.3418 11.2969C6.49154 11.6973 6.72103 12.0065 7.03027 12.2246C7.34277 12.4395 7.74316 12.5469 8.23145 12.5469C8.72298 12.5469 9.12337 12.4395 9.43262 12.2246C9.74186 12.0065 9.96973 11.6973 10.1162 11.2969C10.2627 10.8932 10.3359 10.4163 10.3359 9.86621C10.3359 9.02962 10.1683 8.37533 9.83301 7.90332C9.50098 7.42806 8.97038 7.19043 8.24121 7.19043C7.75293 7.19043 7.35091 7.29785 7.03516 7.5127C6.72266 7.72754 6.49154 8.03516 6.3418 8.43555C6.19206 8.83268 6.11719 9.30957 6.11719 9.86621ZM14.1299 8.04004V13.4453H12.9824V8.04004H14.1299ZM13.5635 5.96973C13.7393 5.96973 13.8906 6.01693 14.0176 6.11133C14.1478 6.20573 14.2129 6.36849 14.2129 6.59961C14.2129 6.82747 14.1478 6.99023 14.0176 7.08789C13.8906 7.18229 13.7393 7.22949 13.5635 7.22949C13.3812 7.22949 13.2266 7.18229 13.0996 7.08789C12.9759 6.99023 12.9141 6.82747 12.9141 6.59961C12.9141 6.36849 12.9759 6.20573 13.0996 6.11133C13.2266 6.01693 13.3812 5.96973 13.5635 5.96973ZM16.7666 11.2676H15.9023L15.668 6.30664H17.001L16.7666 11.2676ZM15.6094 12.8398C15.6094 12.5729 15.6777 12.3857 15.8145 12.2783C15.9544 12.1676 16.1253 12.1123 16.3271 12.1123C16.5257 12.1123 16.695 12.1676 16.835 12.2783C16.9749 12.3857 17.0449 12.5729 17.0449 12.8398C17.0449 13.1003 16.9749 13.2891 16.835 13.4062C16.695 13.5202 16.5257 13.5771 16.3271 13.5771C16.1253 13.5771 15.9544 13.5202 15.8145 13.4062C15.6777 13.2891 15.6094 13.1003 15.6094 12.8398Z" fill="#BF340F"/>
</svg>
