<svg width="22" height="23" viewBox="0 0 22 23" fill="none" xmlns="http://www.w3.org/2000/svg">
<path d="M0 8.28613C0 4.5149 0 2.62928 1.17157 1.45771C2.34315 0.286133 4.22876 0.286133 8 0.286133H14C17.7712 0.286133 19.6569 0.286133 20.8284 1.45771C22 2.62928 22 4.5149 22 8.28613V10.6045C22 14.3757 22 16.2613 20.8284 17.4329C19.6569 18.6045 17.7712 18.6045 14 18.6045H0V8.28613Z" fill="white"/>
<path d="M-4.76837e-07 18.6045L5 18.6045L1.33496 21.5365C0.79696 21.9669 -2.1637e-07 21.5839 -2.76602e-07 20.8949L-4.76837e-07 18.6045Z" fill="white"/>
<mask id="mask0_941_3245" style="mask-type:alpha" maskUnits="userSpaceOnUse" x="5" y="4" width="13" height="13">
<rect x="5" y="4.44531" width="12.019" height="12.019" fill="#D9D9D9"/>
</mask>
<g mask="url(#mask0_941_3245)">
<path d="M11.0099 14.624C10.893 14.624 10.7741 14.6031 10.6531 14.5614C10.532 14.5197 10.4256 14.4529 10.3338 14.3611L9.46995 13.5723C8.58521 12.7627 7.78603 11.9593 7.0724 11.1623C6.35877 10.3652 6.00195 9.48668 6.00195 8.52683C6.00195 7.74225 6.26487 7.08704 6.7907 6.56121C7.31654 6.03538 7.97174 5.77246 8.75632 5.77246C9.19868 5.77246 9.61601 5.86636 10.0083 6.05416C10.4006 6.24195 10.7345 6.49861 11.0099 6.82413C11.2853 6.49861 11.6192 6.24195 12.0115 6.05416C12.4038 5.86636 12.8211 5.77246 13.2635 5.77246C14.048 5.77246 14.7032 6.03538 15.2291 6.56121C15.7549 7.08704 16.0178 7.74225 16.0178 8.52683C16.0178 9.48668 15.6631 10.3672 14.9536 11.1685C14.2442 11.9698 13.4387 12.7752 12.5373 13.5848L11.686 14.3611C11.5941 14.4529 11.4877 14.5197 11.3667 14.5614C11.2457 14.6031 11.1267 14.624 11.0099 14.624Z" fill="#BF340F"/>
</g>
</svg>
