<svg width="22" height="23" viewBox="0 0 22 23" fill="none" xmlns="http://www.w3.org/2000/svg">
<path d="M0 8.28613C0 4.5149 0 2.62928 1.17157 1.45771C2.34315 0.286133 4.22876 0.286133 8 0.286133H14C17.7712 0.286133 19.6569 0.286133 20.8284 1.45771C22 2.62928 22 4.5149 22 8.28613V10.6045C22 14.3757 22 16.2613 20.8284 17.4329C19.6569 18.6045 17.7712 18.6045 14 18.6045H0V8.28613Z" fill="white"/>
<path d="M-4.76837e-07 18.6045L5 18.6045L1.33496 21.5365C0.79696 21.9669 -2.1637e-07 21.5839 -2.76602e-07 20.8949L-4.76837e-07 18.6045Z" fill="white"/>
<path d="M13.4434 9.86621C13.4434 10.4163 13.3734 10.9176 13.2334 11.3701C13.0967 11.8193 12.89 12.2067 12.6133 12.5322C12.3366 12.8545 11.9899 13.1035 11.5732 13.2793C11.1566 13.4551 10.6683 13.543 10.1084 13.543C9.53874 13.543 9.04395 13.4551 8.62402 13.2793C8.20736 13.1035 7.86068 12.8529 7.58398 12.5273C7.31055 12.2018 7.10547 11.8128 6.96875 11.3604C6.83203 10.9079 6.76367 10.4066 6.76367 9.85645C6.76367 9.12077 6.88411 8.47949 7.125 7.93262C7.36914 7.38249 7.73861 6.95605 8.2334 6.65332C8.73145 6.34733 9.3597 6.19434 10.1182 6.19434C10.8604 6.19434 11.4772 6.3457 11.9688 6.64844C12.4603 6.95117 12.8281 7.3776 13.0723 7.92773C13.3197 8.47461 13.4434 9.12077 13.4434 9.86621ZM7.99414 9.86621C7.99414 10.4163 8.06901 10.8932 8.21875 11.2969C8.36849 11.6973 8.59798 12.0065 8.90723 12.2246C9.21973 12.4395 9.62012 12.5469 10.1084 12.5469C10.5999 12.5469 11.0003 12.4395 11.3096 12.2246C11.6188 12.0065 11.8467 11.6973 11.9932 11.2969C12.1396 10.8932 12.2129 10.4163 12.2129 9.86621C12.2129 9.02962 12.0452 8.37533 11.71 7.90332C11.3779 7.42806 10.8473 7.19043 10.1182 7.19043C9.62988 7.19043 9.22786 7.29785 8.91211 7.5127C8.59961 7.72754 8.36849 8.03516 8.21875 8.43555C8.06901 8.83268 7.99414 9.30957 7.99414 9.86621ZM16.0068 8.04004V13.4453H14.8594V8.04004H16.0068ZM15.4404 5.96973C15.6162 5.96973 15.7676 6.01693 15.8945 6.11133C16.0247 6.20573 16.0898 6.36849 16.0898 6.59961C16.0898 6.82747 16.0247 6.99023 15.8945 7.08789C15.7676 7.18229 15.6162 7.22949 15.4404 7.22949C15.2581 7.22949 15.1035 7.18229 14.9766 7.08789C14.8529 6.99023 14.791 6.82747 14.791 6.59961C14.791 6.36849 14.8529 6.20573 14.9766 6.11133C15.1035 6.01693 15.2581 5.96973 15.4404 5.96973Z" fill="#BF340F"/>
</svg>
