<svg width="130" height="32" viewBox="0 0 130 32" fill="none" xmlns="http://www.w3.org/2000/svg">
<g clip-path="url(#clip0_1165_1241)">
<path d="M25.1077 1.85185L24.1874 7.10634C24.1074 7.56938 23.7673 7.90156 23.3072 7.90156H23.2271C21.5566 7.7707 16.8452 7.35799 13.8443 7.35799C12.6739 7.35799 11.4635 7.73043 11.4635 9.11955C11.4635 9.70338 11.8836 10.0859 13.2941 10.9314L18.3857 13.9513C21.3866 15.7128 22.5569 18.028 22.5569 20.9673C22.5569 28.8188 16.0049 32.0098 8.92274 32.0098C5.50169 32.0098 2.83086 31.5467 0.700209 30.9126C0.330095 30.7817 -0.0100098 30.5703 -0.0100098 30.1979V30.067L0.870261 24.9132C0.950286 24.4502 1.3304 24.0777 1.83056 24.0777H1.91058C3.6111 24.2388 8.04247 24.7119 10.2431 24.7119C11.9137 24.7119 13.2941 24.128 13.2941 22.2356C13.2941 21.6015 12.874 21.1384 11.6736 20.3432L6.29193 16.7698C3.87118 15.1692 2.71083 12.4413 2.71083 9.83424C2.71083 2.27463 8.59264 0.00976562 15.2247 0.00976562C18.5157 0.00976562 22.857 0.553333 24.4875 1.05664C24.8276 1.18749 25.1177 1.34855 25.1177 1.73106V1.86192H25.1077V1.85185Z" fill="#164194"/>
<path d="M49.2452 1.33879L48.3649 6.46241C48.2849 6.92545 47.8247 7.29789 47.3646 7.29789H38.932C37.4215 7.29789 36.8413 7.8012 36.5513 9.4017L36.0111 12.4718H46.2742C46.6944 12.4718 46.9845 12.7638 46.9845 13.1865V13.3174L46.1042 18.2699C46.0242 18.7329 45.604 19.1054 45.1439 19.1054H34.8807L34.2505 22.5983C34.2005 22.9405 34.1705 23.1821 34.1705 23.4338C34.1705 24.4001 34.6707 24.692 35.871 24.692H44.3036C44.7238 24.692 45.0139 24.984 45.0139 25.4067V25.5376L44.0936 30.6612C44.0135 31.1645 43.6734 31.4162 43.1333 31.4967C41.5128 31.7081 38.962 32 34.9107 32C30.0292 32 25.5679 30.2384 25.5679 24.7424C25.5679 24.0679 25.6479 23.3533 25.7779 22.6084L28.0786 9.4319C29.5491 0.926077 34.5606 0 40.4424 0C44.4937 0 47.0245 0.291916 48.5749 0.503303C49.0351 0.553633 49.2452 0.76502 49.2452 1.17773V1.33879Z" fill="#164194"/>
<path d="M55.2071 27.9938C55.2071 30.1983 53.4265 31.99 51.2359 31.99C49.0452 31.99 47.2646 30.1983 47.2646 27.9938C47.2646 25.7893 49.0452 23.9976 51.2359 23.9976C53.4265 23.9976 55.2071 25.7893 55.2071 27.9938Z" fill="#E84910"/>
<path d="M88.007 1.64077L82.9954 30.4398C82.8354 31.2752 81.9951 31.9899 81.1649 31.9899H75.9933C75.2431 31.9899 74.7829 31.6477 74.4528 30.8625L68.2809 16.8003C68.1509 16.5083 68.0208 16.458 67.9108 16.458C67.8008 16.458 67.7007 16.5385 67.6607 16.8305L65.16 31.1444C65.0799 31.6074 64.6198 31.9799 64.1596 31.9799H57.8977C57.4776 31.9799 57.1875 31.688 57.1875 31.2652V31.1343L62.189 2.33533C62.3491 1.49985 63.1893 0.785156 64.0196 0.785156H69.1112C69.9014 0.785156 70.2315 1.28846 70.5716 2.00315L76.9136 16.4882C77.0436 16.7801 77.0736 16.8607 77.2037 16.8607C77.3337 16.8607 77.4537 16.8103 77.4938 16.4882L80.0845 1.63071C80.1646 1.16767 80.6247 0.795222 81.0849 0.795222H87.3468C87.7669 0.795222 88.017 1.08714 88.017 1.46965V1.63071L88.007 1.64077Z" fill="#164194"/>
<path d="M112.504 32H105.402C104.982 32 104.692 31.6275 104.692 31.2047L104.562 25.3664H97.1398L94.9291 31.2047C94.769 31.6275 94.3889 32 93.9688 32H86.5865C86.2164 32 86.0063 31.7886 86.0063 31.4564C86.0063 31.3759 86.0564 31.245 86.0864 31.1142L96.1895 5.43564C97.82 1.27835 101.121 0.442871 105.082 0.442871C109.043 0.442871 112.054 1.27835 112.214 5.43564L113.305 31.1142V31.1645C113.305 31.6275 112.965 32 112.515 32H112.504ZM104.362 7.98235C104.362 7.6099 104.362 7.39852 103.992 7.39852C103.622 7.39852 103.572 7.6099 103.452 7.98235L99.5305 18.6524H104.542L104.382 7.98235H104.372H104.362Z" fill="#164194"/>
<path d="M129.99 1.60039C130.07 1.05683 129.73 0.805176 129.28 0.805176H122.438C121.978 0.805176 121.557 1.14742 121.477 1.60039L120.177 9.04928L129.45 4.67054L129.98 1.59033L129.99 1.60039Z" fill="#E84910"/>
<path d="M119.587 12.3914L116.306 31.1546C116.226 31.5773 116.466 31.99 116.976 31.99H123.818C124.448 31.99 124.738 31.6176 124.818 31.1546L128.87 8.0127L119.597 12.3914H119.587Z" fill="#164194"/>
</g>
<defs>
<clipPath id="clip0_1165_1241">
<rect width="130" height="32" fill="white"/>
</clipPath>
</defs>
</svg>
