<svg width="130" height="35" viewBox="0 0 130 35" fill="none" xmlns="http://www.w3.org/2000/svg">
<g clip-path="url(#clip0_16717_416)">
<path d="M27.3692 1.96572L26.3606 7.55146C26.2618 8.03803 25.9058 8.40782 25.4114 8.40782H25.3126C23.4933 8.27158 18.3518 7.82394 15.089 7.82394C13.8234 7.82394 12.4985 8.23265 12.4985 9.7118C12.4985 10.3346 12.9533 10.7433 14.4957 11.6386L20.0327 14.8499C23.2955 16.7378 24.5809 19.1901 24.5809 22.3235C24.5809 30.6924 17.4422 34.0984 9.71019 34.0984C5.99252 34.0984 3.06584 33.6118 0.752177 32.9306C0.336905 32.7944 -0.019043 32.5803 -0.019043 32.1716V32.0353L0.930151 26.5274C1.02903 26.0409 1.42452 25.6322 1.97822 25.6322H2.07709C3.93593 25.8073 8.761 26.2939 11.1735 26.2939C12.9928 26.2939 14.4957 25.6711 14.4957 23.647C14.4957 22.9658 14.0409 22.4792 12.716 21.6423L6.86261 17.8471C4.23255 16.1539 2.94719 13.2345 2.94719 10.4708C2.94719 2.41335 9.37402 0 16.5919 0C20.1909 0 24.9171 0.583876 26.6968 1.10936C27.0528 1.2456 27.3889 1.42077 27.3889 1.82948V1.96572H27.3692Z" fill="#FFFFFF"/>
<path d="M53.1944 1.44023L52.2452 6.9092C52.1463 7.39576 51.652 7.80448 51.1576 7.80448H41.982C40.3407 7.80448 39.7079 8.34943 39.3915 10.0427L38.7983 13.3124H49.9909C50.4457 13.3124 50.7621 13.6238 50.7621 14.0714V14.2077L49.8129 19.482C49.714 19.9686 49.2592 20.3773 48.7648 20.3773H37.592L36.8999 24.0946C36.8603 24.4449 36.8208 24.7174 36.8208 24.9899C36.8208 26.0214 37.3745 26.3328 38.6796 26.3328H47.8552C48.31 26.3328 48.6264 26.6442 48.6264 27.0918V27.2281L47.6179 32.6776C47.519 33.2225 47.1631 33.4756 46.5698 33.5729C44.7901 33.787 42.0216 34.1178 37.6118 34.1178C32.2924 34.1178 27.4277 32.23 27.4277 26.3717C27.4277 25.6516 27.5068 24.8926 27.665 24.0946L30.1567 10.0427C31.7387 0.992589 37.1965 0 43.6036 0C48.0134 0 50.7819 0.311401 52.4627 0.544951C52.9571 0.583876 53.1944 0.817426 53.1944 1.26506V1.44023Z" fill="#FFFFFF"/>
<path d="M85.4275 1.34292L79.9696 32.0353C79.7916 32.9306 78.882 33.6896 77.9723 33.6896H72.3365C71.5257 33.6896 71.0116 33.3393 70.6556 32.483L63.9322 17.4968C63.7938 17.1854 63.6553 17.1465 63.5169 17.1465C63.3785 17.1465 63.2796 17.2243 63.2401 17.5552L60.5111 32.8138C60.432 33.3004 59.9179 33.7091 59.4235 33.7091H52.6012C52.1464 33.7091 51.83 33.3977 51.83 32.9501V32.8138L57.2878 2.12142C57.4658 1.22614 58.3754 0.467102 59.2851 0.467102H64.822C65.6921 0.467102 66.0481 1.01205 66.404 1.77109L73.3055 17.2049C73.4439 17.5163 73.4834 17.6136 73.6219 17.6136C73.7603 17.6136 73.8987 17.5747 73.9383 17.2049L76.7661 1.36238C76.8452 0.875815 77.3593 0.467102 77.8537 0.467102H84.676C85.1308 0.467102 85.4077 0.778503 85.4077 1.18722V1.36238L85.4275 1.34292Z" fill="#FFFFFF"/>
<path d="M111.293 33.6896H103.561C103.106 33.6896 102.79 33.2809 102.79 32.8333L102.651 26.6247H94.5634L92.1509 32.8333C91.9729 33.2809 91.5576 33.6896 91.1028 33.6896H83.0544C82.6392 33.6896 82.4216 33.4756 82.4216 33.1058C82.4216 33.0279 82.4612 32.8917 82.5205 32.7554L93.5351 5.37166C95.2951 0.934202 98.8743 0.0389252 103.205 0.0389252C107.536 0.0389252 110.799 0.934202 110.977 5.37166L112.163 32.7554V32.7944C112.163 33.2809 111.807 33.6896 111.293 33.6896ZM102.434 8.09641C102.434 7.6877 102.434 7.47361 102.019 7.47361C101.603 7.47361 101.564 7.70716 101.425 8.09641L97.1539 19.4625H102.612L102.434 8.09641Z" fill="#FFFFFF"/>
<path d="M129.98 1.30399C130.079 0.720115 129.703 0.447639 129.209 0.447639H121.754C121.259 0.447639 120.805 0.797965 120.706 1.30399L119.282 9.24471L129.387 4.5737L129.98 1.28453V1.30399Z" fill="#E84910"/>
<path d="M118.649 12.8063L115.07 32.8138C114.971 33.2615 115.248 33.7091 115.802 33.7091H123.257C123.949 33.7091 124.265 33.3004 124.344 32.8138L128.754 8.1548L118.649 12.8258V12.8063Z" fill="#FFFFFF"/>
</g>
<defs>
<clipPath id="clip0_16717_416">
<rect width="130" height="34.0984" fill="white"/>
</clipPath>
</defs>
</svg>
